<?xml version="1.0" standalone="no"?>
<!DOCTYPE svg PUBLIC "-//W3C//DTD SVG 20010904//EN"
 "http://www.w3.org/TR/2001/REC-SVG-20010904/DTD/svg10.dtd">
<svg version="1.0" xmlns="http://www.w3.org/2000/svg"
 width="276.000000pt" height="276.000000pt" viewBox="0 0 276.000000 276.000000"
 preserveAspectRatio="xMidYMid meet">
<metadata>
Created by potrace 1.11, written by Peter Selinger 2001-2013
</metadata>
<g transform="translate(0.000000,276.000000) scale(0.100000,-0.100000)"
fill="#000000" stroke="none">
<path d="M1232 2690 c-518 -66 -951 -415 -1112 -898 -51 -153 -64 -241 -65
-417 0 -235 40 -401 147 -606 159 -307 448 -549 778 -653 133 -42 251 -60 405
-59 160 0 276 18 416 63 201 66 369 170 525 325 193 193 308 405 365 678 31
143 31 361 0 504 -58 273 -174 489 -365 678 -198 197 -427 318 -697 370 -104
19 -300 27 -397 15z m-250 -432 c48 -48 66 -85 84 -171 23 -109 58 -154 161
-206 53 -26 73 -27 73 -1 0 11 9 29 19 39 17 17 18 21 5 32 -19 16 -18 22 10
63 15 22 26 57 30 96 8 72 26 71 26 -1 0 -54 13 -86 42 -107 22 -16 23 -35 4
-51 -12 -10 -12 -18 2 -54 9 -23 17 -44 18 -46 7 -9 208 107 222 128 10 14 19
58 23 101 9 103 40 162 124 237 102 89 108 85 18 -12 -90 -96 -113 -144 -113
-227 0 -96 -60 -167 -177 -212 -39 -15 -78 -32 -88 -40 -16 -11 -14 -14 20
-30 57 -27 102 -30 211 -12 178 30 407 56 485 56 90 0 129 -21 129 -70 0 -46
-9 -58 -65 -90 -102 -58 -148 -68 -355 -76 l-190 -7 31 -56 c137 -245 324
-482 499 -633 36 -31 62 -59 58 -63 -9 -9 -229 176 -301 255 -53 57 -221 300
-291 423 -38 64 -69 87 -121 87 -23 0 -59 7 -80 16 -27 11 -35 12 -29 2 19
-32 72 -110 129 -188 96 -130 96 -132 56 -360 -33 -184 -42 -138 120 -599 44
-123 78 -225 76 -227 -17 -17 -257 624 -257 685 0 20 13 105 29 190 16 85 27
161 23 170 -7 22 -175 268 -208 306 -25 29 -25 30 -20 5 14 -62 18 -291 7
-380 -12 -93 -21 -113 -51 -107 -42 7 -67 294 -40 461 9 60 8 89 -4 75 -6 -7
-127 -221 -149 -262 -32 -61 -32 -113 -3 -213 32 -110 56 -225 56 -267 0 -33
-247 -628 -276 -663 -20 -25 -26 -40 105 286 142 353 140 344 82 585 -26 105
-40 182 -36 200 5 27 95 199 141 270 l18 28 -64 -7 c-137 -15 -116 4 -234
-205 -59 -103 -120 -204 -137 -224 -33 -40 -311 -232 -327 -226 -6 2 45 43
112 92 146 103 199 153 233 222 14 27 59 111 99 186 41 75 74 138 74 140 0 2
-55 5 -123 6 -148 3 -246 23 -318 66 -88 53 -102 112 -38 159 35 26 86 25 244
-5 200 -38 369 -60 406 -53 19 3 49 15 68 27 l33 20 -63 30 c-116 55 -177 136
-200 264 l-12 68 -106 104 -106 104 70 -48 c38 -26 87 -65 107 -85z"/>
<path d="M1271 1771 c-38 -20 -34 -26 23 -36 37 -7 38 -7 31 16 -11 37 -17 39
-54 20z"/>
<path d="M1420 1765 c-6 -15 -10 -28 -10 -31 0 -8 24 -3 55 10 l30 13 -33 17
c-32 17 -32 17 -42 -9z"/>
</g>
</svg>
